<svg width="440" height="904" viewBox="0 0 440 904" fill="none" xmlns="http://www.w3.org/2000/svg">
<g clip-path="url(#clip0_216_343)">
<rect width="440" height="904" fill="white"/>
<path d="M-8 -19H568V130.942C537.524 104.844 457.097 34.3743 284.998 43.3846C128.076 51.5847 63.8324 109.231 -8 167V-19Z" fill="#6C4FFF"/>
<path opacity="0.2" d="M-69 -19H100C99.1616 13.4807 86.326 44.6183 63.7847 68.8539C41.2434 93.0894 10.4637 108.846 -23.0596 113.309C-40.6873 102.807 -56.4998 93.9712 -69 88.4831V-19Z" fill="white"/>
<g opacity="0.2" clip-path="url(#clip1_216_343)">
<path d="M78.7433 783.31C75.4685 773.474 63.7281 772.745 56.8832 777.236C51.8021 770.871 40.3554 768.019 34.2703 776.385C20.9938 794.725 51.0787 814.693 51.0787 814.693C51.0787 814.693 85.8663 804.773 78.7433 783.31Z" fill="#853E93"/>
<path d="M51.2602 810.817C48.6394 811.262 47.0725 814.087 47.9967 815.729C48.9764 817.464 50.7466 815.081 51.7624 815.726C52.7781 816.372 54.4774 817.736 54.9379 816.518C55.3617 815.447 55.5053 810.149 51.2602 810.817Z" fill="#66306F"/>
<path d="M41.727 775.733C38.7008 777.176 36.0449 779.965 36.0845 783.583C36.0857 785.152 38.5407 785.058 38.5395 783.489C38.5008 781.126 40.4374 779.02 42.4856 778.04C43.8326 777.356 43.1478 775.068 41.727 775.733Z" fill="white"/>
<path d="M36.1985 787.847C36.1617 787.994 36.1804 788.234 36.1436 788.382C36.1436 788.382 36.107 788.844 36.1622 788.622C36.0704 789.305 36.3847 789.932 37.0494 790.098C37.6402 790.245 38.452 789.82 38.5254 789.211C38.5622 789.063 38.5436 788.823 38.5804 788.676C38.5804 788.676 38.6169 788.214 38.5617 788.436C38.6535 787.753 38.3392 787.125 37.6746 786.96C37.0283 786.72 36.2903 787.164 36.1985 787.847Z" fill="white"/>
<path d="M78.7434 783.31C76.9672 777.848 72.5166 775.249 67.7907 774.698C71.4863 779.698 73.0049 786.194 71.3855 792.693C68.533 804.14 56.9092 811.126 45.4625 808.274C44.1332 807.943 42.9145 807.482 41.7143 806.948C46.4803 811.743 51.0605 814.767 51.0605 814.767C51.0605 814.767 85.8665 804.773 78.7434 783.31Z" fill="#6F2D7F"/>
<path d="M18.1865 913.326C18.1126 913.308 18.0017 913.123 17.9647 912.957C17.9831 912.883 17.9644 912.643 18.2228 912.551C25.272 909.758 31.4348 906.431 37.0617 902.421L37.4307 902.199C45.1424 896.748 53.8873 890.613 55.8547 880.514C55.8915 880.367 55.9838 880.311 55.9838 880.311C56.076 880.256 56.1499 880.274 56.2976 880.311C56.3714 880.329 56.6668 880.403 56.5748 880.772C54.736 890.04 47.3754 895.971 39.3501 901.736C32.6716 906.504 25.7524 910.348 18.3342 913.363C18.3342 913.363 18.2603 913.345 18.1865 913.326Z" fill="#4F3E23"/>
<path d="M18.2785 913.271C18.1308 913.234 18.0015 913.123 17.9645 912.957C17.9829 912.883 17.9275 912.791 18.0381 912.662C26.8179 903.869 34.8759 892.621 43.4107 877.257C50.6551 864.237 56.626 851.293 61.1205 838.922C61.1941 838.627 61.5079 838.627 61.6556 838.663C61.7295 838.682 61.8772 838.719 61.8588 838.792C61.8404 838.866 61.9142 838.885 61.8774 839.032C57.0514 852.419 50.8224 865.769 43.4487 878.678C37.5866 888.982 29.4194 902.242 18.6107 913.197C18.5001 913.326 18.4262 913.308 18.2785 913.271Z" fill="#4F3E23"/>
<path d="M18.2782 913.271C18.1305 913.234 18.0012 913.123 17.9642 912.957C17.9088 912.865 17.9456 912.717 18.0378 912.662C23.9217 906.676 27.4966 898.626 30.1862 891.609C33.097 884.02 35.7118 875.73 38.5831 864.837C40.0372 859.317 41.3619 853.686 42.5576 848.258C45.0783 837.513 47.6356 826.306 51.3563 815.782C51.4483 815.413 51.8175 815.505 51.8914 815.523C51.9652 815.542 52.1129 815.578 52.0945 815.652C52.0761 815.726 52.15 815.744 52.1132 815.892C48.2634 826.62 45.6878 837.9 43.2041 848.811C41.7137 855.107 40.242 861.643 38.4933 868.031C36.1186 876.616 33.5229 885.774 29.8562 894.507C27.2028 900.749 23.8488 907.913 18.592 913.27C18.4998 913.326 18.4259 913.307 18.2782 913.271Z" fill="#4F3E23"/>
<path d="M18.2048 913.252C18.0571 913.215 18.0017 913.123 17.9463 913.031C9.99124 889.871 12.9259 865.189 16.3263 846.192C16.3631 846.044 16.4554 845.989 16.4554 845.989C16.5476 845.934 16.6215 845.952 16.6953 845.97C16.7692 845.989 17.0646 846.062 17.0464 846.45C13.6089 865.281 10.7665 889.907 18.6845 912.901C18.7216 913.067 18.7032 913.141 18.6109 913.196C18.5187 913.252 18.3525 913.289 18.2048 913.252Z" fill="#4F3E23"/>
<path d="M80.7 844.523C91.8682 837.811 95.4803 823.315 88.7678 812.147C82.0552 800.979 67.56 797.367 56.3918 804.079C45.2236 810.792 41.6115 825.287 48.324 836.455C55.0365 847.624 69.5318 851.236 80.7 844.523Z" fill="#54E2C7"/>
<path d="M85.7948 808.206C88.1991 814.296 88.0569 821.476 84.8498 827.736C78.841 839.259 64.6126 843.793 53.0896 837.784C50.5782 836.531 48.4911 834.834 46.6991 832.897C48.715 838.027 52.484 842.418 57.7653 845.145C69.2883 851.154 83.5906 846.639 89.5256 835.098C94.2073 826.068 92.427 815.271 85.7948 808.206Z" fill="#3CD3B6"/>
<path d="M61.17 806.933C64.9161 805.435 69.0137 805.044 72.9464 806.259C74.1834 806.646 74.588 804.708 73.351 804.321C69.1229 803.032 64.6376 803.405 60.541 805.05C59.3231 805.531 59.9521 807.414 61.17 806.933Z" fill="white"/>
<path d="M55.9668 810.185C56.631 809.724 57.3874 809.206 58.0516 808.744C59.1586 808.079 58.0867 806.4 56.9796 807.065C56.2416 807.509 55.5775 807.971 54.8949 808.507C53.8617 809.19 54.9336 810.869 55.9668 810.185Z" fill="white"/>
<path d="M59.1477 842.431C56.0833 842.138 53.3719 844.835 53.9827 847.105C54.5936 849.375 57.3423 847.158 58.3215 848.264C59.3007 849.371 60.8343 851.401 61.627 850.108C62.4198 848.815 64.132 842.888 59.1477 842.431Z" fill="#55BFAC"/>
<path d="M89.6975 866.515C90.0034 856.159 79.1645 851.497 71.247 853.368C68.6199 845.654 58.8316 838.979 50.3264 844.782C31.5633 857.441 53.0163 886.553 53.0163 886.553C53.0163 886.553 88.9949 889.165 89.6975 866.515Z" fill="#EA3B54"/>
<path d="M54.3611 883.044C51.8134 882.566 49.2492 884.673 49.6383 886.574C49.9351 888.53 52.4627 886.885 53.2388 887.863C54.0148 888.841 55.1237 890.686 55.9167 889.707C56.7097 888.728 58.6441 883.798 54.3611 883.044Z" fill="#D21E32"/>
<path d="M57.4531 846.715C54.0753 847.05 50.6617 848.787 49.446 852.092C48.9118 853.606 51.2382 854.343 51.7724 852.829C52.5644 850.595 55.0739 849.338 57.3257 849.114C58.9131 849.039 59.0589 846.566 57.4531 846.715Z" fill="white"/>
<path d="M48.1015 856.228C47.9908 856.357 47.9356 856.579 47.8988 856.727C47.8988 856.727 47.7145 857.151 47.8436 856.948C47.5487 857.502 47.6046 858.222 48.214 858.609C48.7496 858.978 49.5801 858.793 49.8751 858.239C49.9857 858.11 50.0409 857.888 50.0777 857.74C50.0777 857.74 50.262 857.316 50.1329 857.519C50.4279 856.965 50.3719 856.245 49.7625 855.858C49.3008 855.507 48.4148 855.6 48.1015 856.228Z" fill="white"/>
<path d="M89.6973 866.515C89.8765 859.5 85.0185 855.074 79.3504 853.583C80.6085 857.348 80.8148 861.556 79.7842 865.692C76.8398 877.508 64.8469 884.716 53.0309 881.772C51.6278 881.422 50.3353 880.943 49.0612 880.39C51.1684 884.21 52.9793 886.7 52.9793 886.7C52.9793 886.7 88.9947 889.165 89.6973 866.515Z" fill="#D62748"/>
<path d="M15.9431 852.45C15.9431 852.45 9.9455 854.485 10.2419 855.814C10.5382 857.143 13.6012 855.553 13.7128 856.679C13.8244 857.805 14.2123 858.137 14.8954 858.229C15.5046 858.302 15.7617 856.64 16.7591 857.36C17.8118 858.171 20.1385 859.221 19.8419 857.579C19.4898 855.844 17.8448 853.002 15.9431 852.45Z" fill="#E43680"/>
<path d="M27.3345 806.737C20.4664 805.026 5.83147 808.987 0.844107 828.686C-4.21687 848.681 15.2439 855.256 15.2439 855.256C15.2439 855.256 35.5144 858.582 40.4277 838.55C45.2119 818.722 34.1287 808.43 27.3345 806.737Z" fill="#F94EA0"/>
<path d="M19.1595 809.955C14.7856 811.14 10.672 814.742 8.53373 818.602C7.96229 819.636 9.53202 820.576 10.1219 819.468C12.0205 815.941 15.7098 812.782 19.5854 811.708C20.822 811.467 20.3222 809.696 19.1595 809.955Z" fill="white"/>
<path d="M6.61682 822.517C6.37711 822.849 6.1374 823.182 6.04538 823.551C5.91657 824.068 6.26765 824.548 6.71075 824.658C7.2277 824.787 7.70737 824.436 7.81778 823.993C7.87299 823.771 7.70713 824.122 7.83619 823.919C7.83619 823.919 7.98365 823.642 7.87299 823.771C8.20496 823.383 8.25993 822.848 7.89044 822.442C7.63184 822.221 6.94879 822.129 6.61682 822.517Z" fill="white"/>
<path d="M27.3346 806.737C25.7837 806.351 23.9193 806.278 21.8152 806.538C31.4358 811.053 36.8894 821.903 34.2211 832.611C31.1846 844.797 18.8412 852.153 6.72977 849.135C6.36052 849.043 5.91742 848.932 5.54817 848.84C9.88954 853.452 15.244 855.256 15.244 855.256C15.244 855.256 35.5145 858.582 40.4278 838.55C45.212 818.722 34.1288 808.43 27.3346 806.737Z" fill="#E53993"/>
</g>
<g opacity="0.2" clip-path="url(#clip2_216_343)">
<path d="M352.391 86.5861C353.363 76.2647 364.636 72.9055 372.317 75.7363C375.832 68.3896 386.34 63.0283 394.156 69.8064C411.227 84.6783 386.423 110.919 386.423 110.919C386.423 110.919 350.294 109.102 352.391 86.5861Z" fill="#853E93"/>
<path d="M385.371 107.183C388.025 107.026 390.189 109.425 389.659 111.233C389.096 113.144 386.834 111.222 385.99 112.08C385.146 112.937 383.798 114.65 383.074 113.567C382.42 112.619 381.085 107.49 385.371 107.183Z" fill="#66306F"/>
<path d="M386.744 70.8538C390.017 71.576 393.234 73.6942 394.012 77.2278C394.364 78.7567 391.951 79.2188 391.599 77.6899C391.103 75.3794 388.742 73.7648 386.525 73.2722C385.059 72.9097 385.209 70.5259 386.744 70.8538Z" fill="white"/>
<path d="M394.863 81.4075C394.932 81.5431 394.968 81.781 395.037 81.9166C395.037 81.9166 395.177 82.358 395.073 82.1546C395.316 82.7993 395.152 83.4814 394.542 83.7927C393.999 84.0694 393.112 83.8384 392.903 83.2614C392.834 83.1259 392.798 82.8879 392.729 82.7523C392.729 82.7523 392.589 82.3109 392.693 82.5143C392.45 81.8696 392.614 81.1875 393.224 80.8762C393.8 80.4971 394.619 80.7627 394.863 81.4075Z" fill="white"/>
<path d="M352.391 86.5861C352.889 80.8637 356.639 77.3274 361.119 75.7252C358.646 81.4296 358.632 88.1011 361.676 94.067C367.038 104.575 379.938 108.759 390.446 103.398C391.666 102.775 392.75 102.052 393.798 101.26C390.237 107.008 386.457 110.987 386.457 110.987C386.457 110.987 350.294 109.102 352.391 86.5861Z" fill="#6F2D7F"/>
<path d="M440.719 199.588C440.786 199.554 440.853 199.349 440.851 199.179C440.817 199.111 440.781 198.873 440.508 198.841C433.011 197.711 426.256 195.86 419.87 193.223L419.46 193.09C410.717 189.519 400.814 185.515 396.619 176.12C396.55 175.985 396.447 175.951 396.447 175.951C396.345 175.918 396.277 175.953 396.142 176.022C396.074 176.057 395.803 176.195 395.976 176.534C399.858 185.148 408.367 189.266 417.486 193.072C425.068 196.21 432.676 198.394 440.583 199.657C440.583 199.657 440.651 199.623 440.719 199.588Z" fill="#4F3E23"/>
<path d="M440.616 199.555C440.752 199.486 440.853 199.349 440.852 199.179C440.817 199.111 440.85 199.009 440.713 198.908C430.176 192.322 419.788 183.182 408.007 170.139C398.013 159.09 389.275 147.827 382.106 136.789C381.968 136.517 381.662 136.588 381.526 136.657C381.458 136.692 381.323 136.761 381.357 136.829C381.392 136.897 381.324 136.931 381.393 137.067C389.115 149.019 398.195 160.62 408.291 171.533C416.327 180.249 427.275 191.324 440.276 199.558C440.413 199.659 440.481 199.624 440.616 199.555Z" fill="#4F3E23"/>
<path d="M440.616 199.555C440.752 199.486 440.853 199.349 440.852 199.179C440.885 199.077 440.816 198.941 440.713 198.908C433.631 194.404 428.332 187.367 424.129 181.139C419.581 174.402 415.163 166.916 409.908 156.951C407.246 151.901 404.685 146.714 402.296 141.696C397.416 131.797 392.397 121.456 386.398 112.042C386.225 111.703 385.886 111.876 385.818 111.911C385.75 111.945 385.615 112.015 385.649 112.082C385.684 112.15 385.616 112.185 385.685 112.32C391.856 121.903 396.91 132.311 401.791 142.381C404.663 148.178 407.572 154.213 410.716 160.042C414.967 167.87 419.561 176.206 425.104 183.888C429.097 189.37 433.981 195.593 440.311 199.626C440.413 199.659 440.481 199.624 440.616 199.555Z" fill="#4F3E23"/>
<path d="M440.684 199.521C440.82 199.451 440.853 199.349 440.886 199.247C443.411 174.889 434.984 151.506 427.385 133.766C427.316 133.63 427.214 133.597 427.214 133.597C427.111 133.564 427.044 133.598 426.976 133.633C426.908 133.667 426.637 133.806 426.742 134.179C434.339 151.749 442.664 175.099 440.138 199.287C440.139 199.457 440.174 199.525 440.276 199.558C440.378 199.591 440.548 199.59 440.684 199.521Z" fill="#4F3E23"/>
<path d="M364.294 146.662C351.899 142.642 345.11 129.336 349.13 116.941C353.15 104.546 366.457 97.7574 378.851 101.777C391.246 105.797 398.035 119.104 394.015 131.499C389.995 143.893 376.689 150.682 364.294 146.662Z" fill="#54E2C7"/>
<path d="M351.138 112.431C350.169 118.906 351.928 125.869 356.464 131.245C364.918 141.115 379.802 142.321 389.672 133.868C391.836 132.08 393.487 129.957 394.796 127.665C393.989 133.118 391.308 138.246 386.778 142.095C376.908 150.548 361.956 149.376 353.57 139.471C346.972 131.73 346.27 120.81 351.138 112.431Z" fill="#3CD3B6"/>
<path d="M374.84 105.635C370.853 105.021 366.773 105.564 363.216 107.636C362.098 108.291 361.266 106.494 362.384 105.838C366.213 103.629 370.666 102.98 375.029 103.659C376.324 103.853 376.135 105.829 374.84 105.635Z" fill="white"/>
<path d="M380.643 107.63C379.892 107.33 379.038 106.996 378.287 106.696C377.058 106.298 377.724 104.42 378.953 104.819C379.772 105.084 380.523 105.385 381.309 105.753C382.47 106.186 381.804 108.063 380.643 107.63Z" fill="white"/>
<path d="M384.819 139.762C387.738 138.785 390.988 140.801 390.905 143.15C390.822 145.499 387.644 143.96 386.94 145.259C386.235 146.558 385.199 148.881 384.135 147.8C383.071 146.72 380.066 141.332 384.819 139.762Z" fill="#55BFAC"/>
<path d="M360.491 170.117C357.856 160.097 367.364 153.11 375.5 153.146C376.319 145.039 384.349 136.328 393.944 140.062C415.079 148.162 400.747 181.363 400.747 181.363C400.747 181.363 366.285 192.024 360.491 170.117Z" fill="#EA3B54"/>
<path d="M398.645 178.248C401.019 177.208 403.993 178.681 404.042 180.621C404.195 182.594 401.361 181.562 400.826 182.69C400.29 183.817 399.626 185.865 398.633 185.09C397.639 184.315 394.643 179.949 398.645 178.248Z" fill="#D21E32"/>
<path d="M387.437 143.553C390.803 143.117 394.521 144.04 396.451 146.986C397.313 148.34 395.212 149.582 394.35 148.228C393.075 146.23 390.346 145.572 388.102 145.862C386.539 146.147 385.839 143.77 387.437 143.553Z" fill="white"/>
<path d="M398.693 150.711C398.83 150.812 398.934 151.016 399.003 151.151C399.003 151.151 399.279 151.524 399.107 151.355C399.519 151.828 399.627 152.542 399.121 153.057C398.682 153.537 397.831 153.544 397.419 153.07C397.282 152.969 397.178 152.766 397.109 152.63C397.109 152.63 396.834 152.258 397.005 152.427C396.593 151.954 396.485 151.24 396.992 150.725C397.362 150.28 398.247 150.17 398.693 150.711Z" fill="white"/>
<path d="M360.491 170.117C358.734 163.324 362.468 157.916 367.653 155.184C367.277 159.136 368.026 163.282 369.963 167.079C375.497 177.926 388.807 182.243 399.654 176.709C400.942 176.051 402.093 175.293 403.209 174.467C402.018 178.663 400.816 181.498 400.816 181.498C400.816 181.498 366.285 192.024 360.491 170.117Z" fill="#D62748"/>
<path d="M429.171 139.776C429.171 139.776 435.473 140.405 435.484 141.767C435.495 143.128 432.152 142.27 432.297 143.392C432.443 144.514 432.14 144.925 431.495 145.169C430.918 145.378 430.293 143.817 429.483 144.743C428.641 145.771 426.611 147.319 426.529 145.652C426.481 143.882 427.442 140.743 429.171 139.776Z" fill="#E43680"/>
<path d="M407.76 97.811C414.065 94.5943 429.216 95.1519 438.519 113.218C447.961 131.556 430.485 142.352 430.485 142.352C430.485 142.352 411.487 150.165 402.182 131.758C393.047 113.52 401.523 100.993 407.76 97.811Z" fill="#F94EA0"/>
<path d="M416.45 99.102C420.979 99.2694 425.799 101.851 428.753 105.129C429.543 106.007 428.226 107.277 427.401 106.331C424.756 103.323 420.449 101.078 416.431 100.906C415.172 100.95 415.259 99.1116 416.45 99.102Z" fill="white"/>
<path d="M431.503 108.51C431.812 108.78 432.121 109.05 432.293 109.389C432.536 109.863 432.302 110.41 431.895 110.617C431.42 110.859 430.874 110.626 430.666 110.219C430.563 110.015 430.803 110.32 430.632 110.151C430.632 110.151 430.426 109.914 430.563 110.015C430.152 109.712 429.977 109.203 430.246 108.725C430.448 108.451 431.093 108.207 431.503 108.51Z" fill="white"/>
<path d="M407.76 97.811C409.184 97.0846 410.984 96.5935 413.092 96.3721C404.738 102.941 401.873 114.742 406.888 124.572C412.596 135.758 426.28 140.14 437.399 134.467C437.738 134.294 438.144 134.087 438.483 133.914C435.294 139.386 430.485 142.352 430.485 142.352C430.485 142.352 411.487 150.165 402.181 131.758C393.047 113.52 401.523 100.993 407.76 97.811Z" fill="#E53993"/>
</g>
</g>
<defs>
<clipPath id="clip0_216_343">
<rect width="440" height="904" fill="white"/>
</clipPath>
<clipPath id="clip1_216_343">
<rect width="95.7443" height="146.661" fill="white" transform="translate(17.4619 762) rotate(13.9926)"/>
</clipPath>
<clipPath id="clip2_216_343">
<rect width="95.7443" height="146.661" fill="white" transform="matrix(-0.890763 0.454468 0.454468 0.890763 407.286 52)"/>
</clipPath>
</defs>
</svg>
