<svg width="25" height="25" viewBox="0 0 25 25" fill="none" xmlns="http://www.w3.org/2000/svg">
<g clip-path="url(#clip0_23_2589)">
<path d="M11.8261 25.0001C11.3964 24.922 10.9618 24.8634 10.537 24.756C9.08195 24.3947 7.84172 23.6525 6.80656 22.5636C6.58195 22.3292 6.58684 22.1193 6.81633 21.88C7.67082 20.9718 8.69621 20.3126 9.86809 19.8878C10.0585 19.8195 10.2245 19.839 10.4003 19.9415C11.7382 20.7618 13.0859 20.7618 14.4237 19.9415C14.6093 19.8292 14.7802 19.8243 14.9755 19.8927C16.1327 20.3126 17.1386 20.9669 17.9882 21.8605C18.2421 22.1242 18.2372 22.3292 17.9784 22.5978C16.6552 23.9601 15.0536 24.756 13.1591 24.9562C13.1054 24.9611 13.0517 24.9855 12.998 24.9952C12.6073 25.0001 12.2167 25.0001 11.8261 25.0001Z" fill="#6C4FFF"/>
<path d="M12.5584 0C12.6658 0.136719 12.7976 0.263672 12.8709 0.415039C13.1394 0.952148 13.3884 1.49902 13.6375 2.0459C13.6961 2.17285 13.7644 2.24121 13.9207 2.26074C14.5408 2.3291 15.1609 2.41699 15.781 2.49023C15.9959 2.51465 16.1863 2.57324 16.2595 2.80273C16.3279 3.01758 16.2253 3.17383 16.0691 3.32031C15.6003 3.75 15.1462 4.18945 14.6775 4.61914C14.575 4.71191 14.5505 4.7998 14.575 4.93652C14.7019 5.54688 14.8142 6.16211 14.9314 6.77734C14.9705 6.98242 14.9851 7.1875 14.78 7.3291C14.5798 7.46582 14.3992 7.39746 14.2136 7.29492C13.6814 6.99707 13.1443 6.71387 12.617 6.40625C12.4607 6.31836 12.3484 6.32812 12.197 6.41113C11.6599 6.71875 11.1179 7.00684 10.5759 7.30957C10.3953 7.41211 10.2195 7.46582 10.0291 7.3291C9.83863 7.19238 9.83863 7.00195 9.87769 6.80176C9.99488 6.18652 10.1072 5.57129 10.2341 4.96094C10.2683 4.80469 10.239 4.70703 10.1218 4.59961C9.65797 4.17969 9.20875 3.74023 8.74976 3.32031C8.58375 3.16895 8.49097 3.00293 8.5691 2.7832C8.64722 2.56836 8.83277 2.51953 9.03785 2.49512C9.65797 2.42188 10.2781 2.33398 10.8982 2.26562C11.0545 2.25098 11.1228 2.17773 11.1814 2.05078C11.4304 1.50391 11.6843 0.957031 11.948 0.419922C12.0261 0.268555 12.1531 0.141602 12.2605 0.00488281C12.363 0 12.4607 0 12.5584 0Z" fill="#6C4FFF"/>
<path d="M18.5497 21.8945C18.1738 21.3867 17.7099 20.9912 17.2216 20.625C16.5722 20.1367 15.8593 19.7705 15.1025 19.4922C14.7802 19.375 14.4921 19.4043 14.1943 19.5898C13.0077 20.3174 11.8163 20.3222 10.6298 19.5898C10.3369 19.4092 10.0439 19.375 9.72162 19.4922C8.4765 19.9414 7.3974 20.6445 6.48919 21.6162C6.41107 21.7041 6.34271 21.8017 6.26947 21.8945C4.17474 19.2285 4.04291 14.8144 7.02142 11.8799C9.99017 8.95018 14.6874 8.91111 17.6855 11.7724C20.7372 14.6826 20.6982 19.1406 18.5497 21.8945ZM8.98919 15.8349C8.98431 17.7295 10.5175 19.2724 12.4072 19.2773C14.2822 19.2822 15.8251 17.7441 15.83 15.8691C15.8349 13.9697 14.3066 12.4365 12.412 12.4316C10.5273 12.4267 8.99408 13.9551 8.98919 15.8349Z" fill="#6C4FFF"/>
<path d="M18.4033 9.15514C18.4863 8.70592 18.54 8.18834 18.6914 7.70006C18.8525 7.17272 18.7598 6.80651 18.3057 6.47448C17.9346 6.20104 17.627 5.84459 17.2852 5.53209C17.124 5.38561 17.041 5.22448 17.1143 5.01452C17.1826 4.81432 17.3486 4.75084 17.5537 4.72643C18.1982 4.65319 18.8428 4.57506 19.4873 4.47741C19.5752 4.46276 19.6777 4.3651 19.7217 4.27721C19.9951 3.71569 20.2588 3.14928 20.5225 2.58288C20.6104 2.39733 20.7129 2.24108 20.9473 2.2362C21.1914 2.23131 21.3037 2.38756 21.3965 2.58288C21.6602 3.14928 21.9287 3.71569 22.1875 4.28209C22.2461 4.41393 22.3242 4.47252 22.4756 4.49205C23.1201 4.56041 23.7695 4.63366 24.4092 4.74108C24.5508 4.76549 24.7119 4.89733 24.79 5.02428C24.8926 5.1903 24.8047 5.36608 24.6582 5.5028C24.1846 5.94713 23.7109 6.39635 23.2324 6.8358C23.125 6.93834 23.0957 7.03112 23.125 7.1776C23.252 7.78795 23.3691 8.40319 23.4863 9.01842C23.5254 9.21862 23.5254 9.41393 23.3447 9.55065C23.1543 9.69225 22.9639 9.63366 22.7734 9.53112C22.251 9.23815 21.7139 8.95983 21.1963 8.65221C21.0156 8.54479 20.8838 8.55944 20.7129 8.65709C20.1709 8.96959 19.624 9.26745 19.0723 9.5653C18.7305 9.74596 18.4033 9.5653 18.4033 9.15514Z" fill="#6C4FFF"/>
<path d="M1.32326 9.15527C1.40627 8.71582 1.45021 8.21289 1.60158 7.74414C1.78224 7.17773 1.66017 6.78711 1.18166 6.44043C0.825214 6.17676 0.527362 5.83496 0.195331 5.53223C0.0439636 5.39551 -0.0390443 5.23437 0.0244323 5.03418C0.0927917 4.82422 0.26369 4.75098 0.478534 4.72656C1.11818 4.65332 1.75295 4.5752 2.38771 4.48242C2.4756 4.46777 2.58791 4.37988 2.62697 4.29688C2.90529 3.73047 3.16896 3.1543 3.43752 2.57812C3.52541 2.39258 3.63283 2.24121 3.86721 2.24121C4.0967 2.24121 4.21389 2.38281 4.30178 2.57324C4.56057 3.13477 4.82912 3.69141 5.08303 4.25293C5.15139 4.40918 5.23928 4.48242 5.41994 4.50195C6.05959 4.56543 6.69435 4.64355 7.32912 4.75098C7.47072 4.77539 7.63185 4.90723 7.7051 5.03906C7.79299 5.19043 7.72463 5.36621 7.58303 5.49805C7.10939 5.94238 6.63576 6.3916 6.15725 6.83105C6.04494 6.93359 6.001 7.02637 6.03517 7.1875C6.16701 7.79297 6.27443 8.39844 6.39162 9.00391C6.43068 9.20898 6.44533 9.41406 6.25002 9.55566C6.05471 9.69727 5.86916 9.63379 5.67873 9.53125C5.14162 9.22852 4.59475 8.94043 4.05764 8.63281C3.92092 8.55469 3.82326 8.5498 3.68166 8.62793C3.12502 8.94531 2.56349 9.25293 1.99709 9.56055C1.65529 9.74609 1.32326 9.57031 1.32326 9.15527Z" fill="#6C4FFF"/>
<path d="M21.7823 12.6855C21.7823 12.4023 21.7774 12.1533 21.7823 11.9043C21.7872 11.626 21.9581 11.4355 22.2022 11.4307C22.4464 11.4307 22.6173 11.6162 22.6222 11.8994C22.627 12.1484 22.6222 12.3975 22.6222 12.6855C22.8907 12.6855 23.1397 12.6807 23.3888 12.6855C23.6866 12.6904 23.8819 12.8613 23.8722 13.1104C23.8673 13.3496 23.6768 13.5205 23.3936 13.5254C23.1446 13.5303 22.8956 13.5254 22.6173 13.5254C22.6173 13.7988 22.6222 14.0527 22.6173 14.3018C22.6124 14.5898 22.4464 14.7705 22.2022 14.7705C21.9581 14.7705 21.7872 14.5898 21.7823 14.3066C21.7774 14.0625 21.7774 13.8184 21.7726 13.5742C21.7726 13.5693 21.7628 13.5596 21.7384 13.5254C21.5186 13.5254 21.2794 13.5254 21.0352 13.5254C20.7179 13.5205 20.5226 13.3496 20.5274 13.0908C20.5372 12.8369 20.7227 12.6855 21.0304 12.6855C21.2745 12.6807 21.5089 12.6855 21.7823 12.6855Z" fill="#6C4FFF"/>
<path d="M3.18857 21.9971C3.18857 22.2559 3.19345 22.5049 3.18857 22.7539C3.18368 23.0371 3.01278 23.2227 2.77353 23.2275C2.52939 23.2275 2.35361 23.042 2.34872 22.7637C2.34384 22.5146 2.34872 22.2607 2.34872 21.9775C2.08017 21.9775 1.83114 21.9775 1.58212 21.9775C1.28427 21.9727 1.08896 21.8018 1.09384 21.5479C1.09872 21.3037 1.28427 21.1377 1.57236 21.1328C1.82138 21.1279 2.0704 21.1328 2.34872 21.1328C2.34872 20.8545 2.34384 20.6055 2.34872 20.3564C2.35361 20.0732 2.51962 19.8877 2.76376 19.8828C3.0079 19.8828 3.18368 20.0684 3.18857 20.3467C3.19345 20.5811 3.19345 20.8203 3.19345 21.0547C3.19345 21.0693 3.20321 21.084 3.22275 21.1328C3.45712 21.1328 3.70614 21.1279 3.95517 21.1328C4.25302 21.1377 4.44833 21.3135 4.43857 21.5625C4.43368 21.8066 4.24325 21.9678 3.96005 21.9727C3.72568 21.9775 3.4913 21.9775 3.25204 21.9824C3.24716 21.9824 3.23739 21.9873 3.18857 21.9971Z" fill="#6C4FFF"/>
<path d="M21.2599 21.9824C21.0743 21.9824 20.9229 21.9873 20.7716 21.9824C20.5128 21.9727 20.3272 21.7969 20.3321 21.5576C20.337 21.3232 20.5177 21.1475 20.7813 21.1426C20.9278 21.1377 21.0743 21.1426 21.2599 21.1426C21.2599 20.9814 21.255 20.8301 21.2599 20.6787C21.2745 20.3906 21.4356 20.2148 21.6847 20.2148C21.9337 20.2148 22.1046 20.3906 22.1144 20.6738C22.1192 20.8203 22.1144 20.9668 22.1144 21.1426C22.2853 21.1426 22.4366 21.1377 22.588 21.1426C22.8517 21.1523 23.0372 21.3232 23.0421 21.5527C23.047 21.7969 22.8565 21.9727 22.5831 21.9824C22.4366 21.9873 22.295 21.9824 22.1144 21.9824C22.1144 22.1533 22.1192 22.3096 22.1144 22.4609C22.0997 22.7441 21.9288 22.9199 21.6798 22.915C21.4356 22.9102 21.2794 22.7441 21.2599 22.4658C21.255 22.3096 21.2599 22.1582 21.2599 21.9824Z" fill="#6C4FFF"/>
<path d="M1.87509 12.3973C1.87509 12.2118 1.87021 12.0604 1.87509 11.909C1.88974 11.6405 2.06552 11.4696 2.30478 11.4745C2.53427 11.4793 2.70029 11.6405 2.7247 11.8944C2.73447 11.9774 2.7247 12.0555 2.72958 12.1385C2.73447 12.2167 2.73935 12.2948 2.74423 12.3973C2.91513 12.3973 3.0665 12.3924 3.21787 12.3973C3.47665 12.4071 3.6622 12.5877 3.65732 12.8221C3.65244 13.0516 3.48154 13.2225 3.23251 13.2372C3.08115 13.2469 2.9249 13.2372 2.72958 13.2372C2.72958 13.3836 2.72958 13.5106 2.72958 13.6376C2.7247 13.9842 2.56845 14.1698 2.29501 14.1649C2.03134 14.16 1.87997 13.9745 1.87509 13.6424C1.87509 13.5204 1.87509 13.3983 1.87509 13.2372C1.70908 13.2372 1.55771 13.242 1.40634 13.2372C1.12802 13.2274 0.937592 13.0516 0.942475 12.8075C0.947357 12.5633 1.13779 12.3973 1.42099 12.3924C1.55771 12.3973 1.69443 12.3973 1.87509 12.3973Z" fill="#6C4FFF"/>
<path d="M9.41896 15.835C9.42384 14.1846 10.7764 12.8418 12.4219 12.8467C14.0674 12.8516 15.4102 14.209 15.4004 15.8594C15.3955 17.5098 14.043 18.8477 12.3975 18.8428C10.752 18.8428 9.41408 17.4902 9.41896 15.835Z" fill="#6C4FFF"/>
</g>
<defs>
<clipPath id="clip0_23_2589">
<rect width="24.8291" height="25" fill="white"/>
</clipPath>
</defs>
</svg>
